<svg xmlns="http://www.w3.org/2000/svg" xmlns:xlink="http://www.w3.org/1999/xlink" width="500" zoomAndPan="magnify" viewBox="0 0 375 374.999991" height="500" preserveAspectRatio="xMidYMid meet" version="1.0"><defs><g/><clipPath id="29a127ea4d"><path d="M 128 37.5 L 246 37.5 L 246 161 L 128 161 Z M 128 37.5 " clip-rule="nonzero"/></clipPath><clipPath id="f44cbcb2c7"><path d="M 120.859375 145 L 254.359375 145 L 254.359375 203 L 120.859375 203 Z M 120.859375 145 " clip-rule="nonzero"/></clipPath></defs><g clip-path="url(#29a127ea4d)"><path fill="#467010" d="M 184.777344 89.136719 C 184.261719 41.6875 145.488281 44.773438 128.761719 37.609375 C 129.238281 58.007812 131.847656 68.921875 142.25 77.230469 C 152.761719 85.648438 170.332031 88.183594 179.808594 98.253906 C 187.417969 106.34375 184.445312 109.503906 182.75 119.019531 C 181.796875 124.460938 181.136719 130.046875 181.171875 136.074219 C 173.195312 126.1875 162.863281 113.765625 151.652344 111.636719 C 164.261719 113.621094 169.445312 118.433594 176.503906 127.039062 C 174.886719 119.429688 171.25 112.777344 162.460938 108.105469 C 155.515625 104.394531 141.917969 103.882812 133.347656 114.980469 C 148.050781 115.054688 163.230469 141.554688 173.816406 133.613281 L 181.390625 142.546875 L 181.429688 142.546875 C 181.6875 145.746094 182.125 149.128906 182.824219 152.652344 C 186.5 154.347656 190.105469 156.035156 193.59375 157.46875 C 196.496094 158.683594 199.582031 159.859375 202.78125 160.886719 C 199.253906 156.84375 196.496094 152.433594 194.398438 147.726562 L 200.246094 138.320312 C 210.242188 149.75 229.390625 122.441406 245.085938 123.945312 C 237.363281 111.523438 223.144531 110.605469 215.5 113.726562 C 212.703125 114.867188 210.320312 116.226562 208.328125 117.773438 C 210.757812 111.375 212.996094 103.84375 217.886719 100.9375 C 208.21875 97.078125 199.695312 102.519531 196.644531 107.515625 C 192.816406 113.835938 193 119.457031 194.839844 124.933594 C 196.015625 118.90625 198.292969 112.179688 204.914062 105.710938 C 198.222656 116.480469 198.003906 123.464844 198.996094 128.867188 C 207.265625 120.671875 213.039062 119.273438 226.414062 118.542969 C 213.621094 119.679688 201.640625 131.996094 192.230469 142.140625 C 189.730469 134.675781 188.664062 126.664062 188.589844 118.464844 C 188.367188 94.027344 204.175781 97.148438 219.320312 83.070312 C 227 75.898438 229.535156 68.035156 231.230469 53.996094 C 219.285156 61.273438 192.929688 64.582031 189.363281 97.144531 C 198.371094 84.613281 208 85.972656 220.789062 69.101562 C 212.082031 85.199219 195.542969 90.789062 189.035156 102.253906 L 187.164062 104.605469 C 185.140625 81.195312 157.867188 77.777344 145.519531 53.113281 C 162.097656 74.367188 174.1875 71.71875 184.777344 89.136719 Z M 184.777344 89.136719 " fill-opacity="1" fill-rule="evenodd"/></g><g clip-path="url(#f44cbcb2c7)"><path fill="#513a2a" d="M 182.640625 187.605469 C 206.277344 197.382812 229.914062 215.101562 252.734375 187.644531 C 253.652344 183.269531 254.132812 178.714844 254.132812 174.082031 C 254.132812 166.140625 252.734375 158.535156 250.199219 151.515625 C 246.121094 169.046875 224.691406 173.898438 192.34375 160.519531 C 168.707031 150.742188 145.078125 133.027344 122.25 160.480469 C 121.335938 164.855469 120.859375 169.414062 120.859375 174.082031 C 120.859375 181.984375 122.257812 189.59375 124.792969 196.613281 C 128.871094 179.078125 150.300781 174.265625 182.640625 187.605469 Z M 182.640625 187.605469 " fill-opacity="1" fill-rule="evenodd"/></g><path fill="#513a2a" d="M 246.050781 205.875 C 226.199219 228.296875 198.304688 210.320312 181.542969 202.234375 C 156.179688 189.441406 128.945312 190.800781 131.558594 210.246094 C 137.660156 219.652344 146.074219 227.445312 155.964844 232.773438 C 152.949219 220.90625 162.722656 221.050781 174.375 225.972656 C 185.585938 230.714844 198.601562 239.71875 208.085938 237.441406 C 208.785156 237.21875 209.480469 236.960938 210.179688 236.742188 C 225.539062 231.164062 238.292969 220.101562 246.050781 205.875 Z M 246.050781 205.875 " fill-opacity="1" fill-rule="evenodd"/><g fill="#f2f2f2" fill-opacity="1"><g transform="translate(64.600368, 302.38208)"><g><path d="M 20.4375 0.6875 C 16.863281 0.6875 13.648438 -0.0664062 10.796875 -1.578125 C 7.953125 -3.097656 5.71875 -5.207031 4.09375 -7.90625 C 2.46875 -10.601562 1.65625 -13.660156 1.65625 -17.078125 C 1.65625 -20.492188 2.46875 -23.550781 4.09375 -26.25 C 5.71875 -28.945312 7.953125 -31.050781 10.796875 -32.5625 C 13.648438 -34.070312 16.863281 -34.828125 20.4375 -34.828125 C 23.5625 -34.828125 26.375 -34.273438 28.875 -33.171875 C 31.382812 -32.066406 33.46875 -30.472656 35.125 -28.390625 L 28.96875 -22.828125 C 26.757812 -25.492188 24.078125 -26.828125 20.921875 -26.828125 C 19.066406 -26.828125 17.414062 -26.421875 15.96875 -25.609375 C 14.53125 -24.796875 13.410156 -23.648438 12.609375 -22.171875 C 11.816406 -20.691406 11.421875 -18.992188 11.421875 -17.078125 C 11.421875 -15.160156 11.816406 -13.457031 12.609375 -11.96875 C 13.410156 -10.488281 14.53125 -9.34375 15.96875 -8.53125 C 17.414062 -7.71875 19.066406 -7.3125 20.921875 -7.3125 C 24.078125 -7.3125 26.757812 -8.644531 28.96875 -11.3125 L 35.125 -5.75 C 33.46875 -3.675781 31.382812 -2.082031 28.875 -0.96875 C 26.375 0.132812 23.5625 0.6875 20.4375 0.6875 Z M 20.4375 0.6875 "/></g></g></g><g fill="#f2f2f2" fill-opacity="1"><g transform="translate(102.055496, 302.38208)"><g><path d="M 35.90625 -34.140625 L 35.90625 0 L 26.25 0 L 26.25 -13.3125 L 13.078125 -13.3125 L 13.078125 0 L 3.421875 0 L 3.421875 -34.140625 L 13.078125 -34.140625 L 13.078125 -21.3125 L 26.25 -21.3125 L 26.25 -34.140625 Z M 35.90625 -34.140625 "/></g></g></g><g fill="#f2f2f2" fill-opacity="1"><g transform="translate(142.826903, 302.38208)"><g><path d="M 3.421875 -34.140625 L 13.078125 -34.140625 L 13.078125 0 L 3.421875 0 Z M 3.421875 -34.140625 "/></g></g></g><g fill="#f2f2f2" fill-opacity="1"><g transform="translate(160.823278, 302.38208)"><g><path d="M 29.65625 -17.8125 C 31.601562 -17.125 33.128906 -16.054688 34.234375 -14.609375 C 35.347656 -13.160156 35.90625 -11.410156 35.90625 -9.359375 C 35.90625 -6.367188 34.703125 -4.0625 32.296875 -2.4375 C 29.890625 -0.8125 26.410156 0 21.859375 0 L 3.421875 0 L 3.421875 -34.140625 L 20.875 -34.140625 C 25.238281 -34.140625 28.554688 -33.332031 30.828125 -31.71875 C 33.109375 -30.113281 34.25 -27.945312 34.25 -25.21875 C 34.25 -23.59375 33.847656 -22.132812 33.046875 -20.84375 C 32.253906 -19.5625 31.125 -18.550781 29.65625 -17.8125 Z M 12.96875 -27.171875 L 12.96875 -20.578125 L 19.609375 -20.578125 C 22.859375 -20.578125 24.484375 -21.6875 24.484375 -23.90625 C 24.484375 -26.082031 22.859375 -27.171875 19.609375 -27.171875 Z M 21.078125 -6.96875 C 24.453125 -6.96875 26.140625 -8.125 26.140625 -10.4375 C 26.140625 -12.75 24.453125 -13.90625 21.078125 -13.90625 L 12.96875 -13.90625 L 12.96875 -6.96875 Z M 21.078125 -6.96875 "/></g></g></g><g fill="#f2f2f2" fill-opacity="1"><g transform="translate(199.790231, 302.38208)"><g><path d="M 26.296875 -6.640625 L 11.859375 -6.640625 L 9.171875 0 L -0.6875 0 L 14.390625 -34.140625 L 23.90625 -34.140625 L 39.03125 0 L 28.96875 0 Z M 23.46875 -13.75 L 19.078125 -24.6875 L 14.6875 -13.75 Z M 23.46875 -13.75 "/></g></g></g><g fill="#f2f2f2" fill-opacity="1"><g transform="translate(239.586264, 302.38208)"><g><path d="M 10.6875 -26.484375 L 0.1875 -26.484375 L 0.1875 -34.140625 L 30.78125 -34.140625 L 30.78125 -26.484375 L 20.34375 -26.484375 L 20.34375 0 L 10.6875 0 Z M 10.6875 -26.484375 "/></g></g></g><g fill="#f2f2f2" fill-opacity="1"><g transform="translate(272.018207, 302.38208)"><g><path d="M 26.296875 -6.640625 L 11.859375 -6.640625 L 9.171875 0 L -0.6875 0 L 14.390625 -34.140625 L 23.90625 -34.140625 L 39.03125 0 L 28.96875 0 Z M 23.46875 -13.75 L 19.078125 -24.6875 L 14.6875 -13.75 Z M 20.9375 -44.34375 L 30.203125 -44.34375 L 21.03125 -36.921875 L 14.390625 -36.921875 Z M 20.9375 -44.34375 "/></g></g></g><g fill="#f2f2f2" fill-opacity="1"><g transform="translate(98.671718, 332.172233)"><g><path d="M 3.375 -12.515625 L 3.375 -7.828125 L 8.46875 -7.828125 L 8.46875 -6.328125 L 3.375 -6.328125 L 3.375 -1.5 L 9.078125 -1.5 L 9.078125 0 L 1.546875 0 L 1.546875 -14.015625 L 9.078125 -14.015625 L 9.078125 -12.515625 Z M 3.375 -12.515625 "/></g></g></g><g fill="#f2f2f2" fill-opacity="1"><g transform="translate(112.434615, 332.172233)"><g><path d="M 0.859375 -7 C 0.859375 -8.375 1.164062 -9.601562 1.78125 -10.6875 C 2.394531 -11.78125 3.234375 -12.632812 4.296875 -13.25 C 5.367188 -13.863281 6.550781 -14.171875 7.84375 -14.171875 C 9.375 -14.171875 10.707031 -13.800781 11.84375 -13.0625 C 12.976562 -12.332031 13.804688 -11.289062 14.328125 -9.9375 L 12.140625 -9.9375 C 11.753906 -10.78125 11.195312 -11.425781 10.46875 -11.875 C 9.738281 -12.332031 8.863281 -12.5625 7.84375 -12.5625 C 6.875 -12.5625 6 -12.332031 5.21875 -11.875 C 4.445312 -11.425781 3.835938 -10.78125 3.390625 -9.9375 C 2.953125 -9.101562 2.734375 -8.125 2.734375 -7 C 2.734375 -5.894531 2.953125 -4.921875 3.390625 -4.078125 C 3.835938 -3.242188 4.445312 -2.597656 5.21875 -2.140625 C 6 -1.691406 6.875 -1.46875 7.84375 -1.46875 C 8.863281 -1.46875 9.738281 -1.691406 10.46875 -2.140625 C 11.195312 -2.585938 11.753906 -3.234375 12.140625 -4.078125 L 14.328125 -4.078125 C 13.804688 -2.734375 12.976562 -1.695312 11.84375 -0.96875 C 10.707031 -0.238281 9.375 0.125 7.84375 0.125 C 6.550781 0.125 5.367188 -0.175781 4.296875 -0.78125 C 3.234375 -1.394531 2.394531 -2.242188 1.78125 -3.328125 C 1.164062 -4.410156 0.859375 -5.632812 0.859375 -7 Z M 0.859375 -7 "/></g></g></g><g fill="#f2f2f2" fill-opacity="1"><g transform="translate(131.392485, 332.172233)"><g><path d="M 7.890625 0.140625 C 6.585938 0.140625 5.398438 -0.160156 4.328125 -0.765625 C 3.265625 -1.378906 2.421875 -2.226562 1.796875 -3.3125 C 1.171875 -4.40625 0.859375 -5.632812 0.859375 -7 C 0.859375 -8.375 1.171875 -9.601562 1.796875 -10.6875 C 2.421875 -11.78125 3.265625 -12.628906 4.328125 -13.234375 C 5.398438 -13.847656 6.585938 -14.15625 7.890625 -14.15625 C 9.203125 -14.15625 10.394531 -13.847656 11.46875 -13.234375 C 12.539062 -12.628906 13.382812 -11.785156 14 -10.703125 C 14.613281 -9.617188 14.921875 -8.382812 14.921875 -7 C 14.921875 -5.625 14.613281 -4.394531 14 -3.3125 C 13.382812 -2.226562 12.539062 -1.378906 11.46875 -0.765625 C 10.394531 -0.160156 9.203125 0.140625 7.890625 0.140625 Z M 7.890625 -1.453125 C 8.867188 -1.453125 9.75 -1.675781 10.53125 -2.125 C 11.3125 -2.582031 11.925781 -3.234375 12.375 -4.078125 C 12.820312 -4.921875 13.046875 -5.894531 13.046875 -7 C 13.046875 -8.125 12.820312 -9.101562 12.375 -9.9375 C 11.925781 -10.78125 11.3125 -11.425781 10.53125 -11.875 C 9.757812 -12.332031 8.878906 -12.5625 7.890625 -12.5625 C 6.898438 -12.5625 6.015625 -12.332031 5.234375 -11.875 C 4.460938 -11.425781 3.851562 -10.78125 3.40625 -9.9375 C 2.957031 -9.101562 2.734375 -8.125 2.734375 -7 C 2.734375 -5.894531 2.957031 -4.921875 3.40625 -4.078125 C 3.851562 -3.234375 4.46875 -2.582031 5.25 -2.125 C 6.03125 -1.675781 6.910156 -1.453125 7.890625 -1.453125 Z M 7.890625 -1.453125 "/></g></g></g><g fill="#f2f2f2" fill-opacity="1"><g transform="translate(150.631168, 332.172233)"><g><path d="M 9.8125 -3.109375 L 3.71875 -3.109375 L 2.59375 0 L 0.65625 0 L 5.71875 -13.921875 L 7.828125 -13.921875 L 12.875 0 L 10.9375 0 Z M 9.296875 -4.59375 L 6.765625 -11.671875 L 4.234375 -4.59375 Z M 9.296875 -4.59375 "/></g></g></g><g fill="#f2f2f2" fill-opacity="1"><g transform="translate(167.623374, 332.172233)"><g><path d="M 0.859375 -7 C 0.859375 -8.375 1.164062 -9.601562 1.78125 -10.6875 C 2.394531 -11.78125 3.234375 -12.632812 4.296875 -13.25 C 5.367188 -13.863281 6.550781 -14.171875 7.84375 -14.171875 C 9.375 -14.171875 10.707031 -13.800781 11.84375 -13.0625 C 12.976562 -12.332031 13.804688 -11.289062 14.328125 -9.9375 L 12.140625 -9.9375 C 11.753906 -10.78125 11.195312 -11.425781 10.46875 -11.875 C 9.738281 -12.332031 8.863281 -12.5625 7.84375 -12.5625 C 6.875 -12.5625 6 -12.332031 5.21875 -11.875 C 4.445312 -11.425781 3.835938 -10.78125 3.390625 -9.9375 C 2.953125 -9.101562 2.734375 -8.125 2.734375 -7 C 2.734375 -5.894531 2.953125 -4.921875 3.390625 -4.078125 C 3.835938 -3.242188 4.445312 -2.597656 5.21875 -2.140625 C 6 -1.691406 6.875 -1.46875 7.84375 -1.46875 C 8.863281 -1.46875 9.738281 -1.691406 10.46875 -2.140625 C 11.195312 -2.585938 11.753906 -3.234375 12.140625 -4.078125 L 14.328125 -4.078125 C 13.804688 -2.734375 12.976562 -1.695312 11.84375 -0.96875 C 10.707031 -0.238281 9.375 0.125 7.84375 0.125 C 6.550781 0.125 5.367188 -0.175781 4.296875 -0.78125 C 3.234375 -1.394531 2.394531 -2.242188 1.78125 -3.328125 C 1.164062 -4.410156 0.859375 -5.632812 0.859375 -7 Z M 0.859375 -7 "/></g></g></g><g fill="#f2f2f2" fill-opacity="1"><g transform="translate(186.581249, 332.172233)"><g><path d="M 0.859375 -7 C 0.859375 -8.375 1.164062 -9.601562 1.78125 -10.6875 C 2.394531 -11.78125 3.234375 -12.632812 4.296875 -13.25 C 5.367188 -13.863281 6.550781 -14.171875 7.84375 -14.171875 C 9.375 -14.171875 10.707031 -13.800781 11.84375 -13.0625 C 12.976562 -12.332031 13.804688 -11.289062 14.328125 -9.9375 L 12.140625 -9.9375 C 11.753906 -10.78125 11.195312 -11.425781 10.46875 -11.875 C 9.738281 -12.332031 8.863281 -12.5625 7.84375 -12.5625 C 6.875 -12.5625 6 -12.332031 5.21875 -11.875 C 4.445312 -11.425781 3.835938 -10.78125 3.390625 -9.9375 C 2.953125 -9.101562 2.734375 -8.125 2.734375 -7 C 2.734375 -5.894531 2.953125 -4.921875 3.390625 -4.078125 C 3.835938 -3.242188 4.445312 -2.597656 5.21875 -2.140625 C 6 -1.691406 6.875 -1.46875 7.84375 -1.46875 C 8.863281 -1.46875 9.738281 -1.691406 10.46875 -2.140625 C 11.195312 -2.585938 11.753906 -3.234375 12.140625 -4.078125 L 14.328125 -4.078125 C 13.804688 -2.734375 12.976562 -1.695312 11.84375 -0.96875 C 10.707031 -0.238281 9.375 0.125 7.84375 0.125 C 6.550781 0.125 5.367188 -0.175781 4.296875 -0.78125 C 3.234375 -1.394531 2.394531 -2.242188 1.78125 -3.328125 C 1.164062 -4.410156 0.859375 -5.632812 0.859375 -7 Z M 0.859375 -7 "/></g></g></g><g fill="#f2f2f2" fill-opacity="1"><g transform="translate(205.539125, 332.172233)"><g><path d="M 3.375 -14 L 3.375 0 L 1.546875 0 L 1.546875 -14 Z M 3.375 -14 "/></g></g></g><g fill="#f2f2f2" fill-opacity="1"><g transform="translate(213.946601, 332.172233)"><g><path d="M 7.890625 0.140625 C 6.585938 0.140625 5.398438 -0.160156 4.328125 -0.765625 C 3.265625 -1.378906 2.421875 -2.226562 1.796875 -3.3125 C 1.171875 -4.40625 0.859375 -5.632812 0.859375 -7 C 0.859375 -8.375 1.171875 -9.601562 1.796875 -10.6875 C 2.421875 -11.78125 3.265625 -12.628906 4.328125 -13.234375 C 5.398438 -13.847656 6.585938 -14.15625 7.890625 -14.15625 C 9.203125 -14.15625 10.394531 -13.847656 11.46875 -13.234375 C 12.539062 -12.628906 13.382812 -11.785156 14 -10.703125 C 14.613281 -9.617188 14.921875 -8.382812 14.921875 -7 C 14.921875 -5.625 14.613281 -4.394531 14 -3.3125 C 13.382812 -2.226562 12.539062 -1.378906 11.46875 -0.765625 C 10.394531 -0.160156 9.203125 0.140625 7.890625 0.140625 Z M 7.890625 -1.453125 C 8.867188 -1.453125 9.75 -1.675781 10.53125 -2.125 C 11.3125 -2.582031 11.925781 -3.234375 12.375 -4.078125 C 12.820312 -4.921875 13.046875 -5.894531 13.046875 -7 C 13.046875 -8.125 12.820312 -9.101562 12.375 -9.9375 C 11.925781 -10.78125 11.3125 -11.425781 10.53125 -11.875 C 9.757812 -12.332031 8.878906 -12.5625 7.890625 -12.5625 C 6.898438 -12.5625 6.015625 -12.332031 5.234375 -11.875 C 4.460938 -11.425781 3.851562 -10.78125 3.40625 -9.9375 C 2.957031 -9.101562 2.734375 -8.125 2.734375 -7 C 2.734375 -5.894531 2.957031 -4.921875 3.40625 -4.078125 C 3.851562 -3.234375 4.46875 -2.582031 5.25 -2.125 C 6.03125 -1.675781 6.910156 -1.453125 7.890625 -1.453125 Z M 7.890625 -1.453125 "/></g></g></g><g fill="#f2f2f2" fill-opacity="1"><g transform="translate(233.185288, 332.172233)"><g><path d="M 12.546875 0 L 10.71875 0 L 3.375 -11.140625 L 3.375 0 L 1.546875 0 L 1.546875 -14.015625 L 3.375 -14.015625 L 10.71875 -2.890625 L 10.71875 -14.015625 L 12.546875 -14.015625 Z M 12.546875 0 "/></g></g></g><g fill="#f2f2f2" fill-opacity="1"><g transform="translate(250.759176, 332.172233)"><g><path d="M 3.375 -12.515625 L 3.375 -7.828125 L 8.46875 -7.828125 L 8.46875 -6.328125 L 3.375 -6.328125 L 3.375 -1.5 L 9.078125 -1.5 L 9.078125 0 L 1.546875 0 L 1.546875 -14.015625 L 9.078125 -14.015625 L 9.078125 -12.515625 Z M 3.375 -12.515625 "/></g></g></g><g fill="#f2f2f2" fill-opacity="1"><g transform="translate(264.522077, 332.172233)"><g><path d="M 5.984375 0.140625 C 5.054688 0.140625 4.226562 -0.0195312 3.5 -0.34375 C 2.769531 -0.675781 2.195312 -1.132812 1.78125 -1.71875 C 1.375 -2.300781 1.160156 -2.972656 1.140625 -3.734375 L 3.09375 -3.734375 C 3.15625 -3.078125 3.425781 -2.523438 3.90625 -2.078125 C 4.382812 -1.628906 5.078125 -1.40625 5.984375 -1.40625 C 6.847656 -1.40625 7.53125 -1.617188 8.03125 -2.046875 C 8.539062 -2.484375 8.796875 -3.046875 8.796875 -3.734375 C 8.796875 -4.265625 8.644531 -4.695312 8.34375 -5.03125 C 8.050781 -5.375 7.679688 -5.628906 7.234375 -5.796875 C 6.796875 -5.972656 6.207031 -6.160156 5.46875 -6.359375 C 4.539062 -6.597656 3.796875 -6.835938 3.234375 -7.078125 C 2.679688 -7.328125 2.207031 -7.707031 1.8125 -8.21875 C 1.414062 -8.738281 1.21875 -9.429688 1.21875 -10.296875 C 1.21875 -11.054688 1.410156 -11.734375 1.796875 -12.328125 C 2.191406 -12.921875 2.738281 -13.375 3.4375 -13.6875 C 4.144531 -14.007812 4.953125 -14.171875 5.859375 -14.171875 C 7.171875 -14.171875 8.242188 -13.84375 9.078125 -13.1875 C 9.921875 -12.53125 10.394531 -11.660156 10.5 -10.578125 L 8.5 -10.578125 C 8.425781 -11.117188 8.140625 -11.59375 7.640625 -12 C 7.148438 -12.40625 6.5 -12.609375 5.6875 -12.609375 C 4.914062 -12.609375 4.289062 -12.410156 3.8125 -12.015625 C 3.332031 -11.617188 3.09375 -11.066406 3.09375 -10.359375 C 3.09375 -9.847656 3.234375 -9.429688 3.515625 -9.109375 C 3.804688 -8.796875 4.160156 -8.550781 4.578125 -8.375 C 5.003906 -8.207031 5.597656 -8.019531 6.359375 -7.8125 C 7.285156 -7.550781 8.03125 -7.296875 8.59375 -7.046875 C 9.15625 -6.804688 9.632812 -6.425781 10.03125 -5.90625 C 10.4375 -5.394531 10.640625 -4.695312 10.640625 -3.8125 C 10.640625 -3.132812 10.457031 -2.492188 10.09375 -1.890625 C 9.738281 -1.285156 9.203125 -0.796875 8.484375 -0.421875 C 7.773438 -0.046875 6.941406 0.140625 5.984375 0.140625 Z M 5.984375 0.140625 "/></g></g></g></svg>