<svg xmlns="http://www.w3.org/2000/svg" xmlns:xlink="http://www.w3.org/1999/xlink" width="500" zoomAndPan="magnify" viewBox="0 0 375 374.999991" height="500" preserveAspectRatio="xMidYMid meet" version="1.0"><defs><clipPath id="518605f383"><path d="M 72.484375 199 L 302.734375 199 L 302.734375 298 L 72.484375 298 Z M 72.484375 199 " clip-rule="nonzero"/></clipPath></defs><path fill="#414833" d="M 182.804688 102.023438 C 181.914062 20.128906 114.992188 25.453125 86.125 13.089844 C 86.945312 48.292969 91.453125 67.132812 109.40625 81.472656 C 127.542969 95.996094 157.871094 100.375 174.230469 117.757812 C 187.359375 131.714844 182.230469 137.171875 179.304688 153.597656 C 177.660156 162.984375 176.523438 172.628906 176.578125 183.03125 C 162.816406 165.964844 144.984375 144.527344 125.636719 140.851562 C 147.398438 144.277344 156.34375 152.582031 168.523438 167.433594 C 165.730469 154.304688 159.453125 142.824219 144.285156 134.761719 C 132.300781 128.355469 108.828125 127.46875 94.042969 146.621094 C 119.417969 146.753906 145.617188 192.492188 163.886719 178.785156 L 176.960938 194.203125 L 177.023438 194.203125 C 177.472656 199.726562 178.226562 205.5625 179.4375 211.644531 C 185.777344 214.566406 191.996094 217.480469 198.023438 219.957031 C 203.03125 222.054688 208.359375 224.082031 213.878906 225.855469 C 207.789062 218.878906 203.03125 211.261719 199.410156 203.144531 L 209.503906 186.902344 C 226.757812 206.632812 259.804688 159.5 286.890625 162.097656 C 273.566406 140.65625 249.019531 139.070312 235.828125 144.464844 C 231.003906 146.429688 226.886719 148.773438 223.453125 151.445312 C 227.640625 140.402344 231.507812 127.402344 239.953125 122.386719 C 223.265625 115.726562 208.554688 125.113281 203.285156 133.738281 C 196.683594 144.648438 197 154.351562 200.175781 163.804688 C 202.203125 153.402344 206.132812 141.792969 217.558594 130.628906 C 206.011719 149.214844 205.628906 161.269531 207.34375 170.59375 C 221.617188 156.449219 231.582031 154.035156 254.664062 152.769531 C 232.585938 154.734375 211.90625 175.992188 195.667969 193.496094 C 191.355469 180.621094 189.511719 166.792969 189.382812 152.640625 C 189 110.457031 216.28125 115.851562 242.421875 91.546875 C 255.679688 79.171875 260.054688 65.597656 262.980469 41.367188 C 242.363281 53.929688 196.878906 59.636719 190.722656 115.839844 C 206.261719 94.210938 222.882812 96.558594 244.960938 67.441406 C 229.933594 95.226562 201.382812 104.871094 190.15625 124.660156 L 186.921875 128.71875 C 183.429688 88.316406 136.363281 82.414062 115.046875 39.84375 C 143.660156 76.527344 164.527344 71.957031 182.804688 102.023438 Z M 182.804688 102.023438 " fill-opacity="1" fill-rule="evenodd"/><g clip-path="url(#518605f383)"><path fill="#582f0e" d="M 179.121094 271.972656 C 219.914062 288.84375 260.707031 319.421875 300.09375 272.039062 C 301.675781 264.488281 302.503906 256.625 302.503906 248.628906 C 302.503906 234.921875 300.09375 221.792969 295.71875 209.679688 C 288.675781 239.941406 251.691406 248.3125 195.863281 225.21875 C 155.070312 208.347656 114.285156 177.769531 74.890625 225.15625 C 73.304688 232.707031 72.484375 240.574219 72.484375 248.628906 C 72.484375 262.269531 74.898438 275.398438 79.273438 287.511719 C 86.3125 257.253906 123.296875 248.945312 179.121094 271.972656 Z M 179.121094 271.972656 " fill-opacity="1" fill-rule="evenodd"/></g><path fill="#582f0e" d="M 288.554688 303.5 C 254.300781 342.199219 206.148438 311.175781 177.21875 297.214844 C 133.445312 275.140625 86.441406 277.484375 90.949219 311.042969 C 101.480469 327.285156 116.007812 340.730469 133.074219 349.929688 C 127.867188 329.441406 144.742188 329.695312 164.855469 338.1875 C 184.203125 346.371094 206.660156 361.914062 223.03125 357.984375 C 224.242188 357.601562 225.441406 357.15625 226.644531 356.773438 C 253.152344 347.152344 275.167969 328.054688 288.554688 303.5 Z M 288.554688 303.5 " fill-opacity="1" fill-rule="evenodd"/></svg>